#tb 0: 1/25
0,          0,          0,        1,   135168, 0xef68cdfa
0,          1,          1,        1,   135168, 0x3db0cdfa
0,          2,          2,        1,   135168, 0xd5e6cdfa
0,          3,          3,        1,   135168, 0x7f71cdfa
0,          4,          4,        1,   135168, 0x9df7cdfa
0,          5,          5,        1,   135168, 0xff48cdfa
0,          6,          6,        1,   135168, 0xb46acdfa
0,          7,          7,        1,   135168, 0x485acdfa
0,          8,          8,        1,   135168, 0x8be2cdfa
0,          9,          9,        1,   135168, 0x86dbcdfa
0,         10,         10,        1,   135168, 0xdecacdfa
0,         11,         11,        1,   135168, 0x29a3cdfa
0,         12,         12,        1,   135168, 0x04c5cdfa
0,         13,         13,        1,   135168, 0x5f2ccdfa
0,         14,         14,        1,   135168, 0x9680cdfa
0,         15,         15,        1,   135168, 0xe397cdfa
0,         16,         16,        1,   135168, 0xa40ecdfa
0,         17,         17,        1,   135168, 0x5f35cdfa
0,         18,         18,        1,   135168, 0x32fbcdfa
0,         19,         19,        1,   135168, 0x983dcdfa
0,         20,         20,        1,   135168, 0xb67dcdfa
0,         21,         21,        1,   135168, 0x5d41cdfa
0,         22,         22,        1,   135168, 0x35cecdfa
0,         23,         23,        1,   135168, 0xee17cdfa
0,         24,         24,        1,   135168, 0x6599cdfa
0,         25,         25,        1,   135168, 0x918bcdfa
0,         26,         26,        1,   135168, 0xbd30cdfa
0,         27,         27,        1,   135168, 0xc2a6cdfa
0,         28,         28,        1,   135168, 0x688fcdfa
0,         29,         29,        1,   135168, 0xb11bcdfa
0,         30,         30,        1,   135168, 0x8316cdfa
0,         31,         31,        1,   135168, 0x8073cdfa
0,         32,         32,        1,   135168, 0x3bc1cdfa
0,         33,         33,        1,   135168, 0xb581cdfa
0,         34,         34,        1,   135168, 0xdf90cdfa
0,         35,         35,        1,   135168, 0x6297cdfa
0,         36,         36,        1,   135168, 0xe8e8cdfa
0,         37,         37,        1,   135168, 0xa238cdfa
0,         38,         38,        1,   135168, 0xdc68cdfa
0,         39,         39,        1,   135168, 0x7545cdfa
0,         40,         40,        1,   135168, 0xa29dcdfa
0,         41,         41,        1,   135168, 0x874bcdfa
0,         42,         42,        1,   135168, 0x7dfacdfa
0,         43,         43,        1,   135168, 0x7fdfcdfa
0,         44,         44,        1,   135168, 0xebb4cdfa
0,         45,         45,        1,   135168, 0x7295cdfa
0,         46,         46,        1,   135168, 0x54eecdfa
0,         47,         47,        1,   135168, 0x18c4cdfa
0,         48,         48,        1,   135168, 0xaa8fcdfa
0,         49,         49,        1,   135168, 0x99edcdfa
